# AST/ASF file generated using VICON BodyLanguage
# -----------------------------------------------
:version 1.10
:name VICON
:units
  mass 1.0
  length 0.45
  angle deg
:documentation
   .ast/.asf automatically generated from VICON data using
   VICON BodyBuilder and BodyLanguage model FoxedUp or BRILLIANT.MOD
:root
   order TX TY TZ RX RY RZ
   axis XYZ
   position 0 0 0  
   orientation 0 0 0 
:bonedata
  begin
     id 1 
     name lhipjoint
     direction 0.566809 -0.746272 0.349008 
     length 2.40479 
     axis 0 0 0  XYZ
  end
  begin
     id 2 
     name lfemur
     direction 0.34202 -0.939693 0  
     length 7.1578  
     axis 0 0 20  XYZ
    dof rx ry rz
    limits (-160.0 20.0)
           (-70.0 70.0)
           (-60.0 70.0)
  end
  begin
     id 3 
     name ltibia
     direction 0.34202 -0.939693 0   
     length 7.49137   
     axis 0 0 20   XYZ
    dof rx
    limits (-10.0 170.0)
  end
  begin
     id 4 
     name lfoot
     direction 0.0665746 -0.182912 0.980873   
     length 2.36784   
     axis -90 7.62852e-016 20   XYZ
    dof rx rz
    limits (-45.0 90.0)
           (-70.0 20.0)
  end
  begin
     id 5 
     name ltoes
     direction 1.53601e-011 -4.22058e-011 1   
     length 1.18966   
     axis -90 7.62852e-016 20   XYZ
    dof rx
    limits (-90.0 20.0)
  end
  begin
     id 6 
     name rhipjoint
     direction -0.550236 -0.756381 0.353735   
     length 2.37265  
     axis 0 0 0  XYZ 
  end
  begin
     id 7 
     name rfemur
     direction -0.34202 -0.939693 0   
     length 7.43386   
     axis 0 0 -20   XYZ
    dof rx ry rz
    limits (-160.0 20.0)
           (-70.0 70.0)
           (-70.0 60.0)
  end
  begin
     id 8 
     name rtibia
     direction -0.34202 -0.939693 0   
     length 7.50908   
     axis 0 0 -20   XYZ
    dof rx
    limits (-10.0 170.0)
 end
 begin
     id 9 
     name rfoot
     direction -0.0683029 -0.187661 0.979856   
     length 2.41173  
     axis -90 -7.62852e-016 -20   XYZ
    dof rx rz
    limits (-45.0 90.0)
           (-20.0 70.0)
  end
  begin
     id 10 
     name rtoes
     direction -1.53528e-011 -4.21968e-011 1   
     length 1.21082   
     axis -90 -7.62852e-016 -20   XYZ
    dof rx
    limits (-90.0 20.0)
  end
  begin
     id 11 
     name lowerback
     direction 0.013823 0.995423 -0.0945635   
     length 2.04495   
     axis 0 0 0   XYZ
    dof rx ry rz
    limits (-20.0 45.0)
           (-30.0 30.0)
           (-30.0 30.0)
  end
  begin
     id 12 
     name upperback
     direction 0.0276657 0.9994 -0.020853   
     length 2.05008   
     axis 0 0 0   XYZ
    dof rx ry rz
    limits (-20.0 45.0)
           (-30.0 30.0)
           (-30.0 30.0)
  end
  begin
     id 13 
     name thorax
     direction 0.019782 0.999531 0.0233827   
     length 2.06488   
     axis 0 0 0   XYZ
    dof rx ry rz
    limits (-20.0 45.0)
           (-30.0 30.0)
           (-30.0 30.0)
  end
  begin
     id 14 
     name lowerneck
     direction -0.0308541 0.994709 0.0979874   
     length 1.75553   
     axis 0 0 0   XYZ
    dof rx ry rz
    limits (-20.0 45.0)
           (-30.0 30.0)
           (-30.0 30.0)
  end
  begin
     id 15 
     name upperneck
     direction 0.0588398 0.995804 -0.0700903   
     length 1.76878   
     axis 0 0 0   XYZ
    dof rx ry rz
    limits (-20.0 45.0)
           (-30.0 30.0)
           (-30.0 30.0)
  end
  begin
     id 16
     name head
     direction 0.0209966 0.999159 -0.0352225  
     length 1.77193  
     axis 0 0 0   XYZ
    dof rx ry rz
    limits (-20.0 45.0)
           (-30.0 30.0)
           (-30.0 30.0)
  end
  begin
     id 17 
     name lclavicle
     direction 0.938182 0.335073 -0.0868338  
     length 3.58396  
     axis 0 0 0   XYZ
    dof ry rz
    limits (-20.0 10.0)
           (0.0 20.0)
  end
  begin
     id 18 
     name lhumerus
     direction 1 -4.48971e-011 -1.26313e-017   
     length 4.983   
     axis 180 -30 -90   XYZ
    dof rx ry rz
    limits (-60.0 90.0)
           (-90.0 90.0)
           (-90.0 90.0)
  end
  begin
     id 19
     name lradius
     direction 1 -4.48948e-011 -5.89033e-027   
     length 3.48356   
     axis 180 -30 -90   XYZ
    dof rx
    limits (-10.0 170.0)
  end
  begin
     id 20
     name lwrist
     direction 1 -4.48977e-011 -1.48983e-026   
     length 1.74178   
     axis 9.0955e-015 90 90   XYZ
    dof ry
    limits (-180.0 0.0)
 end
  begin
     id 21 
     name lhand
     direction 1 -4.49046e-011 -2.98066e-026   
     length 0.715259   
     axis 1.90115e-014 90 90   XYZ
    dof rx rz
    limits (-90.0 90.0)
           (-45.0 45.0)
  end
  begin
     id 22 
     name lfingers
     direction 1 -4.48907e-011 -5.95731e-026   
     length 0.576661   
     axis 3.80223e-014 90 90   XYZ
    dof rx
    limits (0.0 90.0)
  end
  begin
     id 23
     name lthumb
     direction 0.707107 -6.34963e-011 0.707107   
     length 0.827973   
     axis -90 45 -3.84942e-014   XYZ
    dof rx rz
    limits (-45.0 45.0)
           (-45.0 45.0)
  end
  begin
     id 24 
     name rclavicle
     direction -0.909637 0.398485 -0.11735   
     length 3.44819  
     axis 0 0 0   XYZ 
    dof ry rz
    limits (-10.0 20.0)
           (-20.0 0.0)
  end
  begin
     id 25 
     name rhumerus
     direction -1 -4.48978e-011 -1.09333e-027  
     length 5.2419   
     axis 180 30 90   XYZ
    dof rx ry rz
    limits (-90.0 60.0)
           (-90.0 90.0)
           (-90.0 90.0)
  end
  begin
     id 26 
     name rradius
     direction -1 -4.48953e-011 -7.61841e-027   
     length 3.44417   
     axis 180 30 90   XYZ
    dof rx
    limits (-10.0 170.0)
  end
  begin
     id 27 
     name rwrist
     direction -1 -4.48977e-011 -1.48983e-026   
     length 1.72209   
     axis 9.0955e-015 -90 -90   XYZ
    dof ry
    limits (-180.0 0.0)
  end
  begin
     id 28
     name rhand
     direction -1 -4.49027e-011 -2.98038e-026   
     length 0.622529   
     axis 1.90115e-014 -90 -90   XYZ
    dof rx rz
    limits (-90.0 90.0)
           (-45.0 45.0)
  end
  begin
     id 29
     name rfingers
     direction -1 -4.48838e-011 -5.95531e-026   
     length 0.501899   
     axis 3.80223e-014 -90 -90   XYZ
    dof rx
    limits (0.0 90.0)
  end
  begin
     id 30
     name rthumb
     direction -0.707107 -6.34937e-011 0.707107   
     length 0.720629   
     axis -90 -45 3.84942e-014   XYZ
    dof rx rz
    limits (-45.0 45.0)
           (-45.0 45.0)
  end
:hierarchy
  begin
    root lhipjoint rhipjoint lowerback
    lhipjoint lfemur
    lfemur ltibia
    ltibia lfoot
    lfoot ltoes
    rhipjoint rfemur
    rfemur rtibia
    rtibia rfoot
    rfoot rtoes
    lowerback upperback
    upperback thorax
    thorax lowerneck lclavicle rclavicle
    lowerneck upperneck
    upperneck head
    lclavicle lhumerus
    lhumerus lradius
    lradius lwrist
    lwrist lhand lthumb
    lhand lfingers
    rclavicle rhumerus
    rhumerus rradius
    rradius rwrist
    rwrist rhand rthumb
    rhand rfingers
  end

#!OML:ASF F:\VICON\USERDATA\Patient Classification 1\PLAYGROUND\JustinFriday\JustinFriday.ASF
:FULLY-SPECIFIED
:DEGREES
1210
root 28.3467 28.2448 -3.98602 -37.5691 -0.0428939 -3.77816
lowerback 34.87 0.287342 -1.06826
upperback 13.1996 0.0117871 -0.040051
thorax -3.12491 -0.0408268 0.517778
lowerneck -0.998436 -1.43033 -8.33575
upperneck 20.7177 -2.0538 3.95474
head 6.58565 -1.32545 2.55449
rclavicle 4.96962e-016 0
rhumerus 41.2372 -15.2021 -62.4052
rradius 111.216
rwrist 8.73646
rhand -29.6516 -17.8736
rfingers 7.12502
rthumb -2.98102 -47.8325
lclavicle 4.96962e-016 0
lhumerus 39.0902 23.5085 45.6418
lradius 100.451
lwrist -7.22811
lhand -26.177 -6.35649
lfingers 7.12502
lthumb 0.374749 23.6229
rfemur -28.9769 -9.83326 22.1933
rtibia 69.0708
rfoot 8.6238 -17.0079
rtoes 14.946
lfemur -34.5775 4.05879 -7.27702
ltibia 47.1002
lfoot 11.985 -3.77151
ltoes 4.271
1211
root 28.3436 28.2498 -3.99759 -37.648 0.00563243 -3.67748
lowerback 34.9872 0.304386 -1.12946
upperback 13.1543 0.00879073 -0.0869851
thorax -3.2142 -0.0418511 0.501851
lowerneck -0.583517 -1.34041 -8.31348
upperneck 20.9611 -1.92838 3.73162
head 6.58358 -1.28747 2.49026
rclavicle 1.2921e-015 -1.03368e-014
rhumerus 41.0598 -15.2314 -62.0665
rradius 110.941
rwrist 8.75467
rhand -29.6886 -17.8212
rfingers 7.12502
rthumb -3.01677 -47.7796
lclavicle 1.2921e-015 -1.03368e-014
lhumerus 39.0244 23.4332 45.3611
lradius 100.176
lwrist -7.20312
lhand -26.3772 -6.42333
lfingers 7.12502
lthumb 0.181451 23.5563
rfemur -28.7964 -10.1252 22.0122
rtibia 70.3533
rfoot 9.33725 -16.5239
rtoes 13.5704
lfemur -34.4496 4.0689 -7.41621
ltibia 46.6829
lfoot 11.9793 -3.84597
ltoes 4.00572
1212
root 28.3429 28.2537 -4.00613 -37.6951 -0.200832 -3.80085
lowerback 35.1098 0.294838 -0.890947
upperback 13.1251 0.0730185 -0.06768
thorax -3.28986 -0.0023129 0.375016
lowerneck -0.175688 -1.22384 -8.2331
upperneck 21.1573 -1.7704 3.51886
head 6.5651 -1.22748 2.42074
rclavicle -5.66536e-015 -1.27222e-014
rhumerus 41.0924 -15.3054 -61.969
rradius 110.789
rwrist 8.78997
rhand -29.504 -17.9552
rfingers 7.12502
rthumb -2.83847 -47.916
lclavicle -5.66536e-015 -1.27222e-014
lhumerus 39.1013 23.4133 45.0668
lradius 99.8812
lwrist -6.99187
lhand -26.5107 -6.25556
lfingers 7.12502
lthumb 0.0524736 23.7242
rfemur -28.6236 -10.242 22.1974
rtibia 71.6315
rfoot 9.03538 -16.6497
rtoes 15.2368
lfemur -34.3896 4.12695 -7.17037
ltibia 46.4053
lfoot 11.9432 -3.75717
ltoes 4.59158
1213
root 28.34 28.2546 -4.01653 -37.7497 -0.496405 -4.01709
lowerback 35.2077 0.249582 -0.576716
upperback 13.1262 0.119115 -0.0159615
thorax -3.32339 0.0286033 0.24815
lowerneck 0.345282 -1.04805 -8.35717
upperneck 21.2236 -1.55512 3.45838
head 6.48499 -1.14298 2.43707
rclavicle -5.86415e-015 3.97569e-015
rhumerus 40.9951 -15.3367 -61.4356
rradius 110.515
rwrist 8.61128
rhand -29.609 -18.2666
rfingers 7.12502
rthumb -2.93982 -48.2261
lclavicle -5.86415e-015 3.97569e-015
lhumerus 39.1994 23.6464 44.8198
lradius 99.6985
lwrist -6.83856
lhand -26.0757 -6.05052
lfingers 7.12502
lthumb 0.472648 23.9287
rfemur -28.4741 -10.2556 22.5562
rtibia 72.9141
rfoot 8.38494 -17.3109
rtoes 17.7843
lfemur -34.3697 4.19816 -6.75762
ltibia 46.1917
lfoot 12.0388 -3.91566
ltoes 4.3292
1214
root 28.3355 28.2514 -4.02668 -37.8481 -0.50515 -4.07853
lowerback 35.2476 0.188741 -0.537879
upperback 13.1668 0.0544391 -0.0145406
thorax -3.29266 -0.002741 0.250579
lowerneck 0.804174 -0.911251 -8.51068
upperneck 21.3379 -1.38347 3.36833
head 6.43474 -1.08432 2.44571
rclavicle -1.03368e-014 2.38542e-015
rhumerus 40.8051 -15.3511 -60.5592
rradius 110.127
rwrist 8.19221
rhand -30.1891 -18.4762
rfingers 7.12502
rthumb -3.50006 -48.4272
lclavicle -1.03368e-014 2.38542e-015
lhumerus 39.2438 23.9519 44.6829
lradius 99.5874
lwrist -7.08906
lhand -25.6083 -6.12545
lfingers 7.12502
lthumb 0.924046 23.8523
rfemur -28.2885 -10.4599 22.5698
rtibia 74.2208
rfoot 8.0754 -17.9759
rtoes 18.406
lfemur -34.2986 4.16206 -6.68972
ltibia 45.9846
lfoot 12.2654 -3.95715
ltoes 4.69016
1215
root 28.332 28.2499 -4.03756 -38.0014 -0.447813 -4.06321
lowerback 35.3213 0.134214 -0.593254
upperback 13.2181 -0.0352504 -0.043023
thorax -3.26153 -0.0486573 0.279645
lowerneck 1.22475 -0.822094 -8.63121
upperneck 21.5229 -1.28148 3.29769
head 6.41805 -1.05663 2.45146
rclavicle 6.55989e-015 7.95139e-016
rhumerus 40.6979 -15.2931 -60.0444
rradius 109.946
rwrist 7.72799
rhand -30.7219 -18.5153
rfingers 7.12502
rthumb -4.01462 -48.4572
lclavicle 6.55989e-015 7.95139e-016
lhumerus 39.1441 24.1558 44.4213
lradius 99.4351
lwrist -7.38844
lhand -25.6639 -6.28397
lfingers 7.12502
lthumb 0.870349 23.694
rfemur -28.049 -10.668 22.4296
rtibia 75.5087
rfoot 8.2905 -18.1566
rtoes 18.6877
lfemur -34.1032 4.11283 -6.74818
ltibia 45.7607
lfoot 12.4662 -4.04933
ltoes 5.29313
1216
root 28.3289 28.257 -4.05067 -38.1117 -0.480655 -4.08893
lowerback 35.2059 0.0328938 -0.581245
upperback 13.3111 -0.162162 -0.0777985
thorax -3.12023 -0.111517 0.278897
lowerneck 1.96784 -0.630793 -8.87953
upperneck 21.439 -1.07495 3.2785
head 6.25488 -0.981904 2.49814
rclavicle -5.96354e-015 -7.15625e-015
rhumerus 40.7971 -15.0483 -59.9508
rradius 109.852
rwrist 7.51089
rhand -30.9383 -18.7038
rfingers 7.12502
rthumb -4.22351 -48.6417
lclavicle -5.96354e-015 -7.15625e-015
lhumerus 38.7226 24.4128 43.7343
lradius 99.3105
lwrist -7.14238
lhand -25.7251 -6.3229
lfingers 7.12502
lthumb 0.811219 23.6553
rfemur -27.8619 -10.81 22.3749
rtibia 76.7496
rfoot 8.80414 -17.9456
rtoes 19.2122
lfemur -33.8965 4.04761 -6.69428
ltibia 45.5402
lfoot 12.4369 -4.35841
ltoes 4.11029
